<svg width="20" height="15" viewBox="0 0 20 15" fill="none" xmlns="http://www.w3.org/2000/svg">
<path fill-rule="evenodd" clip-rule="evenodd" d="M0.316406 9.10369C0.316406 9.17138 0.419275 9.22637 0.546971 9.22637H1.3429C1.47028 9.22637 1.57346 9.17196 1.57346 9.10369V5.4972C1.57346 5.42951 1.47059 5.37452 1.3429 5.37452H0.546971C0.41959 5.37452 0.316406 5.42893 0.316406 5.4972M2.4115 10.8198C2.4115 10.9503 2.51437 11.056 2.64206 11.056H3.43799C3.56537 11.056 3.66856 10.9512 3.66856 10.8198V3.8774C3.66856 3.74692 3.56569 3.64119 3.43799 3.64119H2.64206C2.51468 3.64119 2.4115 3.74596 2.4115 3.8774M4.40184 9.29628C4.40184 9.36398 4.50471 9.41896 4.6324 9.41896H5.42833C5.55571 9.41896 5.65889 9.36456 5.65889 9.29628V5.6898C5.65889 5.6221 5.55603 5.56711 5.42833 5.56711H4.6324C4.50502 5.56711 4.40184 5.62152 4.40184 5.6898M6.39218 8.65283C6.39218 8.70368 6.49505 8.74489 6.62274 8.74489H7.41867C7.54605 8.74489 7.64923 8.70406 7.64923 8.65283V5.94806C7.64923 5.89722 7.54636 5.856 7.41867 5.856H6.62274C6.49536 5.856 6.39218 5.89683 6.39218 5.94806M8.48727 11.1773C8.48727 11.323 8.59014 11.4412 8.71783 11.4412H9.51376C9.64114 11.4412 9.74433 11.3241 9.74433 11.1773V3.42356C9.74433 3.27786 9.64146 3.15971 9.51376 3.15971H8.71783C8.59045 3.15971 8.48727 3.2768 8.48727 3.42356M10.4776 13.708C10.4776 13.9452 10.5805 14.1375 10.7082 14.1375H11.5041C11.6315 14.1375 11.7347 13.9468 11.7347 13.708V1.08549C11.7347 0.848309 11.6318 0.656006 11.5041 0.656006H10.7082C10.5808 0.656006 10.4776 0.846672 10.4776 1.08549M12.4679 12.2593C12.4679 12.4456 12.5708 12.5967 12.6985 12.5967H13.4944C13.6218 12.5967 13.725 12.447 13.725 12.2593V2.34157C13.725 2.15524 13.6221 2.00415 13.4944 2.00415H12.6985C12.5711 2.00415 12.4679 2.15389 12.4679 2.34157M14.4583 11.0031C14.4583 11.1387 14.5612 11.2486 14.6889 11.2486H15.4848C15.6122 11.2486 15.7153 11.1398 15.7153 11.0031V3.79045C15.7153 3.65486 15.6125 3.54499 15.4848 3.54499H14.6889C14.5615 3.54499 14.4583 3.6538 14.4583 3.79045M16.4486 9.82803C16.4486 9.92115 16.5515 9.99674 16.6792 9.99674H17.4751C17.6025 9.99674 17.7057 9.92192 17.7057 9.82803V4.86916C17.7057 4.77604 17.6028 4.70045 17.4751 4.70045H16.6792C16.5518 4.70045 16.4486 4.77527 16.4486 4.86916M18.439 11.9048C18.439 12.0742 18.5418 12.2116 18.6695 12.2116H19.4655C19.5928 12.2116 19.696 12.0754 19.696 11.9048V2.88873C19.696 2.71925 19.5931 2.58193 19.4655 2.58193H18.6695C18.5421 2.58193 18.439 2.71809 18.439 2.88873" fill="#5432FF"/>
</svg>
